<?xml version="1.0" encoding="UTF-8" standalone="no"?>
<!-- Created with Inkscape (http://www.inkscape.org/) -->

<svg
   xmlns:dc="http://purl.org/dc/elements/1.1/"
   xmlns:cc="http://creativecommons.org/ns#"
   xmlns:rdf="http://www.w3.org/1999/02/22-rdf-syntax-ns#"
   xmlns:svg="http://www.w3.org/2000/svg"
   xmlns="http://www.w3.org/2000/svg"
   xmlns:sodipodi="http://sodipodi.sourceforge.net/DTD/sodipodi-0.dtd"
   xmlns:inkscape="http://www.inkscape.org/namespaces/inkscape"
   width="210mm"
   height="297mm"
   viewBox="0 0 210 297"
   version="1.1"
   id="svg8"
   inkscape:export-filename="/home/jimturbo/Static_sites/rugby_site/img/logo.png"
   inkscape:export-xdpi="96"
   inkscape:export-ydpi="96"
   inkscape:version="0.92.3 (2405546, 2018-03-11)"
   sodipodi:docname="logo_1.svg">
  <defs
     id="defs2" />
  <sodipodi:namedview
     id="base"
     pagecolor="#ffffff"
     bordercolor="#666666"
     borderopacity="1.0"
     inkscape:pageopacity="0.0"
     inkscape:pageshadow="2"
     inkscape:zoom="1.4"
     inkscape:cx="331.94472"
     inkscape:cy="781.15636"
     inkscape:document-units="mm"
     inkscape:current-layer="layer1"
     showgrid="false"
     inkscape:snap-object-midpoints="true"
     inkscape:window-width="1920"
     inkscape:window-height="1536"
     inkscape:window-x="0"
     inkscape:window-y="27"
     inkscape:window-maximized="0" />
  <metadata
     id="metadata5">
    <rdf:RDF>
      <cc:Work
         rdf:about="">
        <dc:format>image/svg+xml</dc:format>
        <dc:type
           rdf:resource="http://purl.org/dc/dcmitype/StillImage" />
        <dc:title></dc:title>
      </cc:Work>
    </rdf:RDF>
  </metadata>
  <g
     inkscape:label="Layer 1"
     inkscape:groupmode="layer"
     id="layer1">
    <g
       id="g1091"
       transform="matrix(0.45132062,0,0,0.45132062,62.643888,114.86611)">
      <path
         style="fill:none;stroke:#000000;stroke-width:0.27398336px;stroke-linecap:butt;stroke-linejoin:miter;stroke-opacity:1"
         d="M 95.415223,37.006034 V 100.05757"
         id="path825"
         inkscape:connector-curvature="0" />
      <g
         transform="matrix(1.0668831,0,0,1.0668831,-6.385575,-4.582693)"
         id="g1050">
        <path
           style="fill:none;stroke:#000000;stroke-width:0.26458332px;stroke-linecap:butt;stroke-linejoin:miter;stroke-opacity:1"
           d="M 66.015573,68.484553 H 124.81487"
           id="path823"
           inkscape:connector-curvature="0" />
        <path
           inkscape:connector-curvature="0"
           id="path827"
           d="M 116.20391,47.695861 74.626531,89.273245"
           style="fill:none;stroke:#000000;stroke-width:0.26458332px;stroke-linecap:butt;stroke-linejoin:miter;stroke-opacity:1" />
        <path
           style="fill:none;stroke:#000000;stroke-width:0.26458332px;stroke-linecap:butt;stroke-linejoin:miter;stroke-opacity:1"
           d="M 74.626531,47.695861 116.20391,89.273245"
           id="path829"
           inkscape:connector-curvature="0" />
        <circle
           style="fill:#000000;stroke:#000000;stroke-width:0.47366679;stroke-miterlimit:4;stroke-dasharray:none;stroke-opacity:1"
           id="path831"
           cx="100.85116"
           cy="60.323959"
           transform="rotate(4.7799303)"
           r="2.9568303" />
        <circle
           r="30.515644"
           transform="rotate(4.7799303)"
           cy="60.323959"
           cx="100.85116"
           id="circle833"
           style="fill:none;stroke:#000000;stroke-width:2.90292192;stroke-miterlimit:4;stroke-dasharray:none;stroke-opacity:1" />
        <path
           inkscape:connector-curvature="0"
           id="path835"
           d="m 84.50351,41.184848 21.82342,54.59941"
           style="fill:none;stroke:#000000;stroke-width:0.26458332px;stroke-linecap:butt;stroke-linejoin:miter;stroke-opacity:1" />
        <path
           style="fill:none;stroke:#000000;stroke-width:0.26458332px;stroke-linecap:butt;stroke-linejoin:miter;stroke-opacity:1"
           d="M 106.31526,41.180186 84.51518,95.78892"
           id="path837"
           inkscape:connector-curvature="0" />
        <path
           inkscape:connector-curvature="0"
           id="path839"
           d="M 122.55107,57.171501 68.279374,79.797605"
           style="fill:none;stroke:#000000;stroke-width:0.26458332px;stroke-linecap:butt;stroke-linejoin:miter;stroke-opacity:1" />
        <path
           style="fill:none;stroke:#000000;stroke-width:0.26458332px;stroke-linecap:butt;stroke-linejoin:miter;stroke-opacity:1"
           d="M 122.57753,79.733923 68.252912,57.235183"
           id="path841"
           inkscape:connector-curvature="0" />
      </g>
      <g
         id="text954"
         style="font-style:normal;font-variant:normal;font-weight:normal;font-stretch:normal;font-size:10.58333302px;line-height:1.25;font-family:Ubuntu;-inkscape-font-specification:Ubuntu;letter-spacing:0px;word-spacing:0px;fill:#000000;fill-opacity:1;stroke:none;stroke-width:0.26458332"
         aria-label="San Antonio">
        <path
           id="path970"
           style="stroke-width:0.26458332"
           d="m 60.497086,81.836679 q -0.567982,-1.505059 -1.59776,-1.11644 -0.316855,0.119575 -0.482378,0.340407 -0.179162,0.214667 -0.251645,0.502194 -0.08238,0.291264 -0.0891,0.633156 -0.01046,0.33199 -0.006,0.703587 0.01327,0.424842 -0.01811,0.821288 -0.04128,0.400182 -0.165699,0.729933 -0.134321,0.333487 -0.385223,0.597852 -0.254639,0.254462 -0.690314,0.418878 -0.901056,0.340042 -1.63772,-0.08329 -0.736664,-0.423332 -1.143967,-1.502619 -0.235414,-0.623807 -0.287363,-1.181108 -0.06559,-0.563467 0.0032,-0.860895 l 0.898074,0.01175 q -0.05025,0.256514 -0.01213,0.717226 0.02448,0.454547 0.230003,0.999141 0.104629,0.277248 0.25372,0.492469 0.149092,0.21522 0.335173,0.34861 0.186082,0.13339 0.415318,0.171311 0.215598,0.03176 0.463141,-0.06166 0.277248,-0.104628 0.424276,-0.284545 0.147029,-0.179916 0.22082,-0.434001 0.06389,-0.250349 0.08555,-0.552634 0.01793,-0.312187 0.01717,-0.673882 0.01008,-0.512838 0.05005,-0.946462 0.03623,-0.443526 0.182886,-0.80429 0.142914,-0.370666 0.433423,-0.649977 0.280607,-0.275575 0.765791,-0.458674 0.901055,-0.340042 1.6366,0.140272 0.731807,0.470413 1.183951,1.66852 0.153206,0.40597 0.224581,0.77495 0.07754,0.355342 0.10912,0.648845 0.02168,0.29724 0.0172,0.525168 -0.01812,0.221763 -0.03642,0.353102 l -0.900501,0.01179 q 0.04278,-0.276317 0.02558,-0.801485 -0.0172,-0.525168 -0.271296,-1.198484 z"
           inkscape:connector-curvature="0" />
        <path
           id="path972"
           style="stroke-width:0.26458332"
           d="m 58.86214,76.24977 q -0.0724,-0.341664 -0.137597,-0.598307 -0.07775,-0.264802 -0.156456,-0.432035 l -1.604785,0.340047 q -0.02983,0.114503 -0.01043,0.359214 0.0069,0.236552 0.07705,0.567862 0.04607,0.217423 0.129783,0.459324 0.08152,0.231548 0.228931,0.416678 0.134864,0.176971 0.339393,0.274271 0.194175,0.09949 0.473718,0.04026 0.517673,-0.109692 0.654538,-0.48488 0.126513,-0.372993 0.0059,-0.942433 z m -4.807158,1.105161 q -0.122855,-0.579793 -0.05092,-1.006132 0.05939,-0.434499 0.288473,-0.731862 0.216538,-0.305523 0.577677,-0.49023 0.350786,-0.182513 0.806337,-0.279042 l 3.364872,-0.713001 q 0.04703,0.119853 0.136712,0.338854 0.07713,0.210841 0.167425,0.483803 0.0903,0.272961 0.181205,0.599884 0.09907,0.314375 0.167079,0.635332 0.09653,0.455552 0.08452,0.858375 -0.01201,0.402822 -0.14949,0.724048 -0.147835,0.32342 -0.446238,0.548925 -0.298402,0.225505 -0.764308,0.324229 -0.445198,0.09433 -0.803451,-0.01366 -0.360446,-0.118353 -0.622977,-0.387273 -0.262531,-0.268921 -0.443466,-0.663314 -0.180935,-0.394394 -0.277464,-0.849945 -0.03071,-0.144949 -0.04292,-0.304638 -0.02255,-0.157496 -0.02001,-0.298672 -0.01001,-0.149336 -0.01124,-0.257259 -0.0012,-0.107922 3.47e-4,-0.151529 l -0.26919,0.05704 q -0.238129,0.05046 -0.454936,0.15049 -0.22716,0.102226 -0.374649,0.274116 -0.157842,0.174084 -0.210918,0.434152 -0.06562,0.251909 0.01336,0.624633 0.100917,0.476259 0.250176,0.823272 0.136712,0.338855 0.246482,0.499506 l -0.773084,0.282815 q -0.122317,-0.168811 -0.286933,-0.5883 -0.174969,-0.417294 -0.282468,-0.924613 z"
           inkscape:connector-curvature="0" />
        <path
           id="path974"
           style="stroke-width:0.26458332"
           d="m 53.569865,72.763547 q -0.101316,-0.334063 -0.224197,-0.889582 -0.12288,-0.555518 -0.159004,-1.284874 -0.03246,-0.655363 0.136344,-1.098172 0.158231,-0.442286 0.483919,-0.712727 0.314593,-0.280489 0.774455,-0.409228 0.459861,-0.128739 1.020091,-0.156486 l 3.08655,-0.152871 0.04869,0.983045 -2.875143,0.1424 q -0.507378,0.02513 -0.863106,0.116922 -0.356251,0.08122 -0.570376,0.250772 -0.214125,0.16955 -0.29617,0.438521 -0.09262,0.269495 -0.07325,0.660599 0.0079,0.158555 0.0268,0.327158 0.01895,0.168602 0.04794,0.326111 0.0179,0.147462 0.04532,0.273259 0.0269,0.115227 0.04009,0.167555 l 4.640396,-0.229829 0.04869,0.983045 z"
           inkscape:connector-curvature="0" />
        <path
           id="path976"
           style="stroke-width:0.26458332"
           d="m 59.906346,59.112784 q -0.502165,0.08375 -0.979448,0.150857 -0.487664,0.06505 -0.987769,0.138414 l -0.647017,3.259572 1.707586,1.01871 -0.208117,1.04846 q -1.059465,-0.641894 -1.95276,-1.196854 -0.903675,-0.557021 -1.707664,-1.072675 -0.801928,-0.526034 -1.52287,-1.025203 -0.731323,-0.50123 -1.435703,-1.029481 l 0.18339,-0.923891 q 0.85274,-0.219167 1.720061,-0.40307 0.856939,-0.185964 1.796925,-0.355443 0.942046,-0.17986 1.989961,-0.349495 1.037534,-0.171695 2.261845,-0.360265 z m -2.855377,0.415089 q -0.969067,0.152916 -1.87585,0.318196 -0.915103,0.152839 -1.763723,0.351244 0.706441,0.51787 1.491728,1.019022 0.776968,0.48871 1.61622,0.989784 z"
           inkscape:connector-curvature="0" />
        <path
           id="path978"
           style="stroke-width:0.26458332"
           d="m 55.517173,55.195197 q 0.04476,-0.346209 0.160762,-0.903203 0.116005,-0.556994 0.382485,-1.236887 0.239445,-0.610918 0.575152,-0.945395 0.325852,-0.33834 0.733853,-0.451239 0.40201,-0.126615 0.874185,-0.05522 0.472174,0.07139 0.994411,0.276082 l 2.877225,1.12771 -0.359168,0.916377 -2.680155,-1.05047 Q 58.602954,52.687575 58.2409,52.62524 q -0.358191,-0.07219 -0.623045,-0.0055 -0.264854,0.0667 -0.450087,0.27828 -0.195085,0.207717 -0.33798,0.572297 -0.05793,0.147803 -0.109869,0.309321 -0.05194,0.161518 -0.09016,0.317045 -0.04421,0.141811 -0.07085,0.267778 -0.02277,0.116112 -0.03223,0.169242 l 4.325692,1.695428 -0.359169,0.916377 z"
           inkscape:connector-curvature="0" />
        <path
           id="path980"
           style="stroke-width:0.26458332"
           d="m 58.534242,48.060818 1.021236,-1.817679 0.71969,0.404348 -1.021236,1.817678 2.214431,1.244145 q 0.359845,0.202174 0.630845,0.281596 0.261774,0.07424 0.462383,0.04127 0.191382,-0.03815 0.340054,-0.173125 0.148671,-0.134979 0.273086,-0.356422 0.217725,-0.387525 0.264283,-0.664851 0.04251,-0.291736 0.05745,-0.404739 l 0.803774,0.233081 q -0.008,0.165462 -0.09716,0.54024 -0.07994,0.379961 -0.313221,0.795166 -0.274748,0.48902 -0.576134,0.744567 -0.305429,0.241136 -0.663416,0.294932 -0.357986,0.0538 -0.764486,-0.06534 -0.410543,-0.133543 -0.890337,-0.403108 L 56.714252,48.16723 57.04873,47.226195 Z"
           inkscape:connector-curvature="0" />
        <path
           id="path982"
           style="stroke-width:0.26458332"
           d="m 65.704221,42.459874 q 0.5211,0.39876 0.825572,0.871628 0.304473,0.472868 0.394804,0.981766 0.09676,0.500493 -0.02456,1.007343 -0.129731,0.500418 -0.470607,0.945874 -0.340876,0.445456 -0.78999,0.701473 -0.45752,0.249585 -0.972337,0.295407 -0.508386,0.03742 -1.044397,-0.132878 -0.53601,-0.170294 -1.05711,-0.569054 -0.512695,-0.392329 -0.817168,-0.865196 -0.312877,-0.4793 -0.409639,-0.979793 -0.09033,-0.508898 0.0394,-1.009316 0.121326,-0.50685 0.462202,-0.952306 0.340875,-0.445456 0.798395,-0.695041 0.449114,-0.256017 0.9575,-0.293434 0.514818,-0.04582 1.059233,0.130905 0.536011,0.170293 1.048706,0.562622 z m -0.623867,0.815269 q -0.739625,-0.565982 -1.425536,-0.557801 -0.687885,-0.0067 -1.125235,0.564873 -0.43735,0.571528 -0.257563,1.242166 0.177813,0.655801 0.917439,1.221783 0.739625,0.565982 1.42751,0.572638 0.685911,-0.0082 1.123261,-0.57971 0.43735,-0.571528 0.259536,-1.227329 -0.179786,-0.670638 -0.919412,-1.23662 z"
           inkscape:connector-curvature="0" />
        <path
           id="path984"
           style="stroke-width:0.26458332"
           d="m 65.213841,39.206207 q 0.1905,-0.292529 0.536629,-0.744076 0.346129,-0.451547 0.881148,-0.948558 0.480742,-0.446589 0.928307,-0.602344 0.440361,-0.163509 0.856953,-0.08826 0.417142,0.06029 0.811615,0.329435 0.394474,0.269141 0.776235,0.680098 l 2.103293,2.264138 -0.721113,0.669884 -1.959231,-2.10906 q -0.345747,-0.372187 -0.644928,-0.585398 -0.291427,-0.220414 -0.559,-0.2752 -0.267572,-0.05479 -0.526247,0.0555 -0.265878,0.102537 -0.552772,0.36905 -0.116309,0.108046 -0.233168,0.231049 -0.11686,0.123003 -0.218762,0.246556 -0.101351,0.108597 -0.179992,0.210541 -0.07089,0.09474 -0.102453,0.138511 l 3.162141,3.403961 -0.721113,0.669884 z"
           inkscape:connector-curvature="0" />
        <path
           id="path986"
           style="stroke-width:0.26458332"
           d="m 74.233848,38.561541 -0.796347,0.578428 -3.234226,-4.452691 0.796347,-0.578428 z m -4.22133,-4.965277 q -0.214071,0.155492 -0.467717,0.13044 -0.251304,-0.03983 -0.425454,-0.279595 -0.174151,-0.23976 -0.128097,-0.4825 0.0484,-0.257523 0.262469,-0.413014 0.214072,-0.155492 0.465375,-0.115658 0.253646,0.02505 0.427797,0.264812 0.174151,0.239761 0.125753,0.497283 -0.04605,0.242741 -0.260126,0.398232 z"
           inkscape:connector-curvature="0" />
        <path
           id="path988"
           style="stroke-width:0.26458332"
           d="m 78.526366,32.791222 q 0.318396,0.57374 0.408598,1.128872 0.0902,0.555132 -0.0303,1.057741 -0.111249,0.497473 -0.424965,0.913645 -0.318852,0.406918 -0.809308,0.679095 -0.490455,0.272178 -1.004453,0.327448 -0.519133,0.04602 -1.009387,-0.117654 -0.480999,-0.168806 -0.90434,-0.539063 -0.423342,-0.370256 -0.741738,-0.943997 -0.313261,-0.564487 -0.403462,-1.119619 -0.09534,-0.564385 0.01591,-1.061859 0.120503,-0.502608 0.439354,-0.909526 0.313717,-0.416172 0.804172,-0.68835 0.490456,-0.272177 1.009589,-0.318194 0.513998,-0.05527 0.994998,0.113536 0.490253,0.163671 0.91873,0.543181 0.423341,0.370257 0.736602,0.934744 z m -0.897627,0.498136 q -0.451917,-0.814342 -1.083979,-1.080873 -0.627944,-0.28092 -1.257208,0.06829 -0.629264,0.349209 -0.732377,1.035827 -0.099,0.67223 0.352923,1.486572 0.451917,0.814341 1.079861,1.095262 0.632062,0.266531 1.261326,-0.08268 0.629264,-0.349209 0.728258,-1.021439 0.103114,-0.686619 -0.348804,-1.50096 z"
           inkscape:connector-curvature="0" />
      </g>
      <g
         id="text961"
         style="font-style:normal;font-variant:normal;font-weight:normal;font-stretch:normal;font-size:10.58333302px;line-height:1.25;font-family:Ubuntu;-inkscape-font-specification:Ubuntu;letter-spacing:0px;word-spacing:0px;fill:#000000;fill-opacity:1;stroke:none;stroke-width:0.26458332"
         aria-label="Wheelchair">
        <path
           id="path997"
           style="stroke-width:0.26458332"
           d="m 118.50765,33.846479 q -1.15569,0.934421 -2.20294,1.68676 -1.04725,0.75234 -2.05932,1.451813 l -0.85466,-0.568707 q 0.43005,-1.65881 1.06551,-3.397051 0.64427,-1.732378 1.50848,-3.699769 l 0.89871,0.598022 q -0.33396,0.769335 -0.6591,1.544532 -0.32515,0.775198 -0.61804,1.521015 -0.28702,0.737005 -0.53886,1.421146 -0.25184,0.68414 -0.43625,1.286033 0.96805,-0.690629 2.09741,-1.528163 1.13523,-0.846345 2.26449,-1.798355 l 0.74012,0.492489 q -0.44201,1.409321 -0.77544,2.789196 -0.32757,1.371063 -0.59074,2.53073 0.4693,-0.399605 1.00309,-0.896131 0.5338,-0.496525 1.09396,-1.051779 0.57483,-0.558202 1.16431,-1.15751 0.59534,-0.60812 1.176,-1.213291 l 0.87228,0.580433 q -1.48978,1.551121 -2.84774,2.808598 -1.34914,1.263341 -2.70434,2.30654 l -0.85466,-0.568707 q 0.24552,-1.209552 0.54384,-2.460243 0.29832,-1.250691 0.71389,-2.677601 z"
           inkscape:connector-curvature="0" />
        <path
           id="path999"
           style="stroke-width:0.26458332"
           d="m 120.32638,41.498882 5.79605,-5.576828 0.80445,0.591846 -2.02861,1.95189 q 0.26705,0.124907 0.51798,0.309382 0.26589,0.184764 0.47869,0.405929 0.45496,0.472836 0.61854,0.9176 0.1712,0.437427 0.10327,0.855273 -0.053,0.418136 -0.31515,0.817269 -0.26218,0.399133 -0.66638,0.788043 l -2.2269,2.142676 -0.68243,-0.709254 2.07437,-1.995917 q 0.36607,-0.352221 0.574,-0.655095 0.21527,-0.295248 0.26536,-0.56374 0.0501,-0.268493 -0.0647,-0.525194 -0.10718,-0.264038 -0.37869,-0.546214 -0.11007,-0.114396 -0.24273,-0.221742 -0.13266,-0.107347 -0.2656,-0.199729 -0.11799,-0.09209 -0.22892,-0.161596 -0.1036,-0.06188 -0.15554,-0.08533 l -3.2946,3.169986 z"
           inkscape:connector-curvature="0" />
        <path
           id="path1001"
           style="stroke-width:0.26458332"
           d="m 126.49272,44.143889 q 0.60172,-0.413759 1.1664,-0.545168 0.5734,-0.137406 1.06779,-0.05351 0.49438,0.0839 0.90048,0.356944 0.4061,0.273046 0.67594,0.665473 0.62964,0.915663 0.38988,1.799786 -0.23103,0.878126 -1.39959,1.681657 -0.0523,0.03598 -0.13953,0.09594 -0.0785,0.05397 -0.15425,0.09322 l -2.13476,-3.104535 q -0.67039,0.538041 -0.79079,1.147438 -0.12041,0.609398 0.40128,1.368091 0.29383,0.427309 0.56148,0.667117 0.28237,0.242532 0.45407,0.34281 l -0.60225,0.581095 q -0.18043,-0.09428 -0.52548,-0.409303 -0.33906,-0.3063 -0.66287,-0.777212 -0.40776,-0.593002 -0.53318,-1.148962 -0.11069,-0.553236 0.0114,-1.048169 0.12205,-0.494933 0.45342,-0.928292 0.34608,-0.430634 0.8606,-0.784427 z m 2.5855,2.807434 q 0.55539,-0.369059 0.70633,-0.896699 0.16566,-0.524916 -0.17614,-1.02199 -0.19189,-0.279059 -0.45517,-0.41912 -0.24856,-0.137337 -0.52491,-0.165657 -0.27636,-0.02832 -0.56306,0.04038 -0.2807,0.07742 -0.53415,0.213167 z"
           inkscape:connector-curvature="0" />
        <path
           id="path1003"
           style="stroke-width:0.26458332"
           d="m 129.99257,49.452068 q 0.66028,-0.31194 1.23872,-0.351121 0.58801,-0.0437 1.06255,0.118371 0.47454,0.162072 0.83162,0.496691 0.35707,0.334619 0.56051,0.765231 0.47469,1.004761 0.0963,1.839011 -0.36882,0.829729 -1.65109,1.435525 -0.0574,0.02713 -0.15311,0.07233 -0.0861,0.04069 -0.16719,0.06728 l -1.60943,-3.406619 q -0.74798,0.423605 -0.96453,1.005817 -0.21655,0.582212 0.17677,1.414728 0.22152,0.468889 0.44726,0.748504 0.23984,0.284663 0.39324,0.411172 l -0.68762,0.477027 q -0.16298,-0.121988 -0.45306,-0.488253 -0.28557,-0.356696 -0.5297,-0.87343 -0.30742,-0.650703 -0.34208,-1.219578 -0.0206,-0.563827 0.17925,-1.032791 0.19983,-0.468964 0.59638,-0.843593 0.41064,-0.36958 0.97522,-0.636311 z m 2.10198,3.185624 q 0.60738,-0.275246 0.84096,-0.771863 0.24766,-0.491568 -0.01,-1.03701 -0.14466,-0.306213 -0.38208,-0.48667 -0.22333,-0.17541 -0.49157,-0.247668 -0.26824,-0.07226 -0.56225,-0.05041 -0.28948,0.03142 -0.56141,0.124776 z"
           inkscape:connector-curvature="0" />
        <path
           id="path1005"
           style="stroke-width:0.26458332"
           d="m 130.41695,57.921546 q -0.26786,-0.870115 -0.037,-1.348733 0.23086,-0.478618 0.9738,-0.726386 l 6.2648,-2.089284 0.47202,0.880125 -6.27484,2.092632 q -0.23092,0.07701 -0.36812,0.167391 -0.1372,0.09038 -0.19743,0.210874 -0.0602,0.120492 -0.0602,0.287829 0.0101,0.163989 0.0536,0.394908 z"
           inkscape:connector-curvature="0" />
        <path
           id="path1007"
           style="stroke-width:0.26458332"
           d="m 131.26517,61.443715 q -0.14283,-0.651273 -0.0449,-1.192822 0.1002,-0.531212 0.39754,-0.95397 0.29961,-0.41242 0.76988,-0.68891 0.48061,-0.278756 1.10087,-0.414781 0.62026,-0.136025 1.17568,-0.07364 0.5577,0.07272 1.0024,0.321914 0.45504,0.246923 0.76608,0.677114 0.32364,0.438261 0.45286,1.027508 0.0794,0.361818 0.0967,0.737239 0.0173,0.375421 -0.0445,0.735698 l -0.86428,-0.03799 q 0.0558,-0.239762 0.0543,-0.542819 8.2e-4,-0.29272 -0.0695,-0.613187 -0.17683,-0.806338 -0.7786,-1.129433 -0.59949,-0.312757 -1.57123,-0.09965 -0.43418,0.09522 -0.7756,0.267604 -0.33915,0.182725 -0.55225,0.446155 -0.21083,0.273768 -0.28301,0.636312 -0.0618,0.360278 0.0424,0.83581 0.0839,0.382494 0.22426,0.676754 0.14038,0.29426 0.26162,0.451864 l -0.77687,0.311222 q -0.0698,-0.07137 -0.15551,-0.215095 -0.0754,-0.145997 -0.14945,-0.335611 -0.0844,-0.187348 -0.15498,-0.410242 -0.0786,-0.21029 -0.12396,-0.417043 z"
           inkscape:connector-curvature="0" />
        <path
           id="path1009"
           style="stroke-width:0.26458332"
           d="m 131.84896,63.907514 8.02546,-0.535987 0.23454,0.970778 -2.80891,0.187595 q 0.12394,0.267503 0.19719,0.570211 0.0845,0.312563 0.10497,0.618797 0.0437,0.654709 -0.11744,1.100355 -0.1506,0.444942 -0.47159,0.720945 -0.30972,0.285858 -0.7673,0.422487 -0.45758,0.136629 -1.01725,0.174007 l -3.08347,0.205931 -0.0656,-0.982062 2.87226,-0.191827 q 0.50688,-0.03385 0.86097,-0.131749 0.3548,-0.08734 0.56598,-0.260544 0.21118,-0.173207 0.28859,-0.44355 0.088,-0.271047 0.0619,-0.66176 -0.0106,-0.158398 -0.043,-0.325944 -0.0324,-0.167546 -0.0747,-0.323828 -0.031,-0.146427 -0.0711,-0.271029 -0.0394,-0.114042 -0.0641,-0.16543 l -4.56184,0.304666 z"
           inkscape:connector-curvature="0" />
        <path
           id="path1011"
           style="stroke-width:0.26458332"
           d="m 132.63305,71.859812 q -0.032,0.347785 -0.0456,0.612227 -0.004,0.275949 0.0216,0.458984 l 1.63354,0.150103 q 0.0624,-0.100547 0.11626,-0.340037 0.0635,-0.227983 0.0944,-0.565229 0.0203,-0.221318 0.012,-0.477157 -0.009,-0.245301 -0.0954,-0.465764 -0.0764,-0.208955 -0.24302,-0.362424 -0.15604,-0.152501 -0.44059,-0.178648 -0.52694,-0.04842 -0.76871,0.269458 -0.23123,0.318846 -0.28449,0.898487 z m 4.91889,0.366966 q -0.0542,0.59018 -0.24912,0.976134 -0.18531,0.39746 -0.49213,0.613709 -0.29726,0.227756 -0.69688,0.297314 -0.38909,0.07053 -0.8528,0.02792 l -3.42515,-0.314732 q -0.009,-0.128404 -0.0303,-0.364134 -0.0113,-0.224223 -0.0168,-0.511679 -0.005,-0.287457 0.004,-0.62664 -0.002,-0.329612 0.0284,-0.656319 0.0426,-0.463713 0.17329,-0.844938 0.13069,-0.381225 0.35707,-0.647376 0.23693,-0.265183 0.5887,-0.392278 0.35177,-0.127095 0.82602,-0.08352 0.45318,0.04164 0.76342,0.250824 0.30928,0.219721 0.48047,0.554289 0.17118,0.334568 0.2273,0.764841 0.0561,0.430273 0.0135,0.893986 -0.0136,0.147545 -0.0492,0.303692 -0.0251,0.157116 -0.0693,0.291217 -0.0346,0.145608 -0.0654,0.249061 -0.0308,0.103452 -0.0452,0.144639 l 0.27401,0.02518 q 0.24239,0.02227 0.47909,-0.0091 0.24724,-0.03042 0.43899,-0.150965 0.20229,-0.119575 0.32995,-0.352286 0.13724,-0.221204 0.1721,-0.600606 0.0446,-0.484791 0.005,-0.860432 -0.0303,-0.364135 -0.0876,-0.550075 l 0.82215,-0.04136 q 0.0669,0.197448 0.1,0.646862 0.0436,0.450382 -0.004,0.96679 z"
           inkscape:connector-curvature="0" />
        <path
           id="path1013"
           style="stroke-width:0.26458332"
           d="m 131.21862,76.378166 0.19981,-0.963756 5.38874,1.117193 -0.19981,0.963756 z m 6.46384,0.832088 q 0.0537,-0.259075 0.25819,-0.411233 0.21269,-0.139647 0.50286,-0.07949 0.29016,0.06016 0.41944,0.270702 0.1375,0.223057 0.0838,0.482131 -0.0537,0.259074 -0.2664,0.398721 -0.20448,0.152158 -0.49465,0.092 -0.29016,-0.06016 -0.42766,-0.283214 -0.12928,-0.210545 -0.0756,-0.469619 z"
           inkscape:connector-curvature="0" />
        <path
           id="path1015"
           style="stroke-width:0.26458332"
           d="m 135.60527,81.625902 q -0.0372,0.121426 -0.10396,0.267007 -0.0597,0.158801 -0.1366,0.301281 -0.0668,0.145581 -0.13432,0.257704 -0.0606,0.125343 -0.0994,0.179854 l -0.77001,-0.413078 q 0.0746,-0.0989 0.20581,-0.346489 0.13823,-0.234365 0.26227,-0.639119 0.0806,-0.26309 0.10054,-0.544786 0.0269,-0.268476 0.0315,-0.355628 l -4.42194,-1.355113 0.28839,-0.941053 5.03918,1.54427 q 0.0191,0.371134 -0.0317,0.897967 -0.0406,0.529933 -0.2298,1.147183 z"
           inkscape:connector-curvature="0" />
      </g>
      <g
         id="text965"
         style="font-style:normal;font-variant:normal;font-weight:normal;font-stretch:normal;font-size:10.58333302px;line-height:1.25;font-family:Ubuntu;-inkscape-font-specification:Ubuntu;letter-spacing:0px;word-spacing:0px;fill:#000000;fill-opacity:1;stroke:none;stroke-width:0.26458332"
         aria-label="Rugby">
        <path
           id="path1030"
           style="stroke-width:0.26458332"
           d="m 117.6605,101.4166 q -0.26112,-0.0727 -0.67138,-0.20758 -0.41265,-0.12008 -0.88338,-0.30266 -0.46455,-0.174 -0.94526,-0.38853 -0.4893,-0.20834 -0.89134,-0.44042 l 0.91014,-0.655852 q 0.40685,0.202533 0.85422,0.388903 0.43879,0.192559 0.86142,0.344579 0.42881,0.16061 0.82669,0.27829 0.38929,0.12387 0.69474,0.2038 0.10543,-0.089 0.22564,-0.17565 0.11162,-0.0804 0.23183,-0.16705 l 0.747,-0.538297 -1.67675,-2.326884 0.83287,-0.600167 4.22592,5.864438 q -0.29017,0.33954 -0.70092,0.67466 -0.41315,0.3499 -0.77377,0.60976 -1.2536,0.90335 -2.24646,0.90134 -1.00145,0.004 -1.67586,-0.93173 -0.42692,-0.59245 -0.41241,-1.24211 0.006,-0.64347 0.46706,-1.28884 z m 3.27306,1.88101 q 0.53235,-0.38361 0.79713,-0.61355 l -1.61488,-2.24102 -0.59246,0.42692 q -0.42931,0.30936 -0.74183,0.59979 -0.31251,0.29042 -0.45772,0.57769 -0.15379,0.29345 -0.1279,0.60091 0.0321,0.31606 0.29194,0.67668 0.2413,0.33487 0.53097,0.4653 0.28966,0.13043 0.60571,0.0984 0.30747,-0.0259 0.64511,-0.19093 0.32906,-0.15885 0.66393,-0.40015 z"
           inkscape:connector-curvature="0" />
        <path
           id="path1032"
           style="stroke-width:0.26458332"
           d="m 109.45193,102.59513 q 0.26805,-0.22365 0.73157,-0.55356 0.454,-0.32531 1.11143,-0.64319 0.57168,-0.27641 1.04065,-0.30332 0.47357,-0.0174 0.8592,0.17235 0.38562,0.18973 0.68852,0.54876 0.30751,0.36855 0.55168,0.87354 l 1.34521,2.78219 -0.88611,0.42844 -1.25307,-2.59163 q -0.43766,-0.90516 -0.91238,-1.15761 -0.47472,-0.25244 -1.15121,0.0747 -0.14292,0.0691 -0.29077,0.15234 -0.14784,0.0832 -0.27662,0.15726 -0.12418,0.0836 -0.22438,0.14376 -0.10513,0.0743 -0.14355,0.11643 l 2.02242,4.18281 -0.88611,0.42844 z"
           inkscape:connector-curvature="0" />
        <path
           id="path1034"
           style="stroke-width:0.26458332"
           d="m 104.63318,104.55598 q 0.0983,-0.11675 0.41562,-0.35225 0.31008,-0.22239 0.77757,-0.35827 0.47765,-0.13883 0.94879,-0.11045 0.46098,0.0313 0.8676,0.2548 0.40957,0.23364 0.73133,0.65812 0.32177,0.42448 0.51377,1.08505 0.16837,0.57928 0.13444,1.10715 -0.031,0.53802 -0.25575,0.97808 -0.23199,0.45318 -0.65351,0.7851 -0.41857,0.34209 -1.01817,0.51637 -0.66058,0.19201 -1.17793,0.23217 -0.52456,0.0533 -0.88356,0.0695 l -1.37062,-4.71551 q -0.35447,-1.21953 0.11611,-1.95146 0.47058,-0.73193 1.75109,-1.10412 0.49797,-0.14475 0.96876,-0.19342 0.46063,-0.0457 0.81833,-0.0284 l 0.0665,0.8734 q -0.31705,-0.0291 -0.74719,0.008 -0.44326,0.0296 -0.89042,0.15961 -0.8435,0.24518 -1.11188,0.68689 -0.27855,0.44466 -0.0659,1.17638 z m 1.15037,3.91987 q 0.1541,-7.1e-4 0.40686,-0.0411 0.24556,-0.0273 0.65207,-0.14545 0.76221,-0.22154 1.03414,-0.84063 0.26177,-0.61613 0.0225,-1.43931 -0.13292,-0.45732 -0.33924,-0.75004 -0.21648,-0.28976 -0.4716,-0.44705 -0.26529,-0.15434 -0.5489,-0.18212 -0.29377,-0.0248 -0.56816,0.0549 -0.37602,0.10929 -0.66153,0.30249 -0.28255,0.20336 -0.42413,0.39881 z"
           inkscape:connector-curvature="0" />
        <path
           id="path1036"
           style="stroke-width:0.26458332"
           d="m 101.50605,109.97349 q -0.16524,0.13645 -0.50796,0.30423 -0.35323,0.16901 -0.82628,0.22411 -0.588688,0.0686 -1.065206,-0.089 -0.48703,-0.15637 -0.846482,-0.49807 -0.359452,-0.3417 -0.578363,-0.84895 -0.229425,-0.50602 -0.302898,-1.13675 -0.07715,-0.66227 0.06013,-1.22167 0.127993,-0.54765 0.442549,-0.95721 0.314557,-0.40957 0.795878,-0.66808 0.481322,-0.25851 1.112057,-0.33198 0.683295,-0.0796 1.219935,-0.0462 0.53663,0.0334 0.88404,0.0888 l 0.9123,7.83162 -0.95804,0.28208 z m -0.50942,-4.3731 q -0.15206,-0.0249 -0.41977,-0.0363 -0.27699,3e-4 -0.676457,0.0468 -0.788419,0.0918 -1.201466,0.66204 -0.411823,0.58072 -0.300388,1.53734 0.04898,0.42049 0.17594,0.77862 0.126958,0.35813 0.346792,0.59889 0.221059,0.25128 0.543059,0.36294 0.312711,0.1234 0.7332,0.0744 0.39947,-0.0465 0.71994,-0.22238 0.32047,-0.17584 0.48204,-0.34383 z"
           inkscape:connector-curvature="0" />
        <path
           id="path1038"
           style="stroke-width:0.26458332"
           d="m 96.484932,104.17649 q -0.114312,-0.0573 -0.292481,-0.10649 -0.188341,-0.0601 -0.368127,-0.067 -0.581659,-0.0222 -0.919603,0.22965 -0.33754,0.24129 -0.624149,0.81285 0.617786,1.29452 1.145311,2.73387 0.516546,1.44953 0.841518,2.92351 l -1.057562,-0.0404 q -0.09815,-0.48035 -0.235779,-1.03634 -0.148203,-0.5564 -0.326921,-1.14573 -0.178718,-0.58933 -0.389162,-1.17988 -0.210445,-0.59055 -0.443656,-1.1396 -0.444292,1.09509 -0.78202,2.17307 -0.337728,1.07797 -0.646152,2.22062 l -1.01526,-0.0388 q 0.440108,-1.54007 0.960377,-2.96058 0.519865,-1.40993 1.106892,-2.63725 0.229692,-0.46783 0.475283,-0.79736 0.235419,-0.34051 0.518869,-0.55209 0.28345,-0.21159 0.636485,-0.30401 0.34246,-0.0928 0.77606,-0.0763 0.116332,0.004 0.242432,0.0304 0.126503,0.0154 0.252198,0.052 0.115524,0.0256 0.220069,0.0614 0.09397,0.0354 0.135463,0.0581 z"
           inkscape:connector-curvature="0" />
      </g>
    </g>
  </g>
</svg>
